<svg id="Réteg_1" data-name="Réteg 1" xmlns="http://www.w3.org/2000/svg" viewBox="0 0 45.65 17.98"><defs><style>.cls-1{fill: #6a64ff;}</style></defs><circle class="cls-1" cx="11.88" cy="4.25" r="0.92"/><path class="cls-1" d="M16.06,5.49a4,4,0,0,0-.38-1.79,2.72,2.72,0,0,0-1-1.18,3.07,3.07,0,0,0-3.1,0,2.79,2.79,0,0,0-1,1.18,4,4,0,0,0-.38,1.79,3.94,3.94,0,0,0,.38,1.77,2.79,2.79,0,0,0,1,1.18,3.07,3.07,0,0,0,3.1,0,2.72,2.72,0,0,0,1-1.18A3.94,3.94,0,0,0,16.06,5.49ZM14.84,6.71a2,2,0,0,1-.64.9,1.94,1.94,0,0,1-2.22,0,2,2,0,0,1-.64-.9,3.47,3.47,0,0,1-.21-1.22,3.43,3.43,0,0,1,.21-1.22A2,2,0,0,1,12,3.35a1.94,1.94,0,0,1,2.22,0,2,2,0,0,1,.64.92,3.43,3.43,0,0,1,.21,1.22A3.47,3.47,0,0,1,14.84,6.71Z"/><path class="cls-1" d="M22.84,7.26a3.94,3.94,0,0,0,.38-1.77,4,4,0,0,0-.38-1.79,2.79,2.79,0,0,0-1-1.18,3.07,3.07,0,0,0-3.1,0,2.79,2.79,0,0,0-1,1.18,4,4,0,0,0-.38,1.79,3.94,3.94,0,0,0,.38,1.77,2.79,2.79,0,0,0,1,1.18,3.07,3.07,0,0,0,3.1,0A2.79,2.79,0,0,0,22.84,7.26ZM22,6.71a2,2,0,0,1-.64.9,1.94,1.94,0,0,1-2.22,0,2,2,0,0,1-.64-.9,3.47,3.47,0,0,1-.21-1.22,3.43,3.43,0,0,1,.21-1.22,2,2,0,0,1,.64-.92,1.94,1.94,0,0,1,2.22,0,2,2,0,0,1,.64.92,3.43,3.43,0,0,1,.21,1.22A3.47,3.47,0,0,1,22,6.71Z"/><path class="cls-1" d="M9.74,16.92l-.28,0A1.23,1.23,0,0,1,9,16.87a.62.62,0,0,1-.32-.28A1.3,1.3,0,0,1,8.59,16V12.13H10v-.85H8.59V9.71h0V8.19h0V4.35A2.33,2.33,0,0,0,8,2.64,2,2,0,0,0,6.6,2.1a2.34,2.34,0,0,0-1.21.3,1.92,1.92,0,0,0-.75.8H4.57a1.88,1.88,0,0,0-.68-.81A1.85,1.85,0,0,0,2.81,2.1a1.93,1.93,0,0,0-1.09.29,1.56,1.56,0,0,0-.66.81H1v-1H0V8.73H1V4.64a1.65,1.65,0,0,1,.2-.85,1.54,1.54,0,0,1,.55-.58A1.35,1.35,0,0,1,2.49,3a1.29,1.29,0,0,1,.93.34,1.19,1.19,0,0,1,.36.9V8.73h1V4.47a1.44,1.44,0,0,1,.38-1A1.36,1.36,0,0,1,6.26,3a1.47,1.47,0,0,1,.93.31,1.26,1.26,0,0,1,.4,1V8.73h0v1.71h0v.84h-1v.85h1v4.1a1.56,1.56,0,0,0,.27.94,1.58,1.58,0,0,0,.67.56,2,2,0,0,0,.83.18,2.11,2.11,0,0,0,.47,0,2,2,0,0,0,.28-.08l-.2-.9Z"/><path class="cls-1" d="M14.21,11.18a1.9,1.9,0,0,0-1.06.3,1.61,1.61,0,0,0-.65.79h-.07v-1h-1v6.55h1V13.69a1.44,1.44,0,0,1,.8-1.34,1.81,1.81,0,0,1,.85-.2,2.34,2.34,0,0,1,.38,0l.23,0v-1l-.25,0Z"/><path class="cls-1" d="M19.91,11.58a2.25,2.25,0,0,0-.8-.31,4,4,0,0,0-.73-.07,3.93,3.93,0,0,0-1,.13,2.68,2.68,0,0,0-.94.47,2.3,2.3,0,0,0-.68.93l1,.34a2,2,0,0,1,.58-.67,1.81,1.81,0,0,1,1.13-.32,1.42,1.42,0,0,1,1,.35,1.34,1.34,0,0,1,.34,1v0a.37.37,0,0,1-.17.34,1.72,1.72,0,0,1-.55.14l-1,.11c-.3,0-.6.1-.9.16a3.31,3.31,0,0,0-.82.3,1.62,1.62,0,0,0-.6.56,1.72,1.72,0,0,0-.22.91,1.91,1.91,0,0,0,.3,1.09,1.86,1.86,0,0,0,.81.68,2.57,2.57,0,0,0,1.13.24,2.46,2.46,0,0,0,1-.17,1.91,1.91,0,0,0,.64-.41,2,2,0,0,0,.34-.46h.05v.89h1V13.51a2.57,2.57,0,0,0-.26-1.24A1.72,1.72,0,0,0,19.91,11.58Zm-.11,3.88a1.58,1.58,0,0,1-.21.78,1.63,1.63,0,0,1-.62.6,2,2,0,0,1-1,.24,1.7,1.7,0,0,1-1-.27.9.9,0,0,1-.39-.79.85.85,0,0,1,.21-.61,1.13,1.13,0,0,1,.54-.33,4.1,4.1,0,0,1,.73-.17l.43-.05.54-.08a4.67,4.67,0,0,0,.49-.1.71.71,0,0,0,.28-.14Z"/><path class="cls-1" d="M24.23,12.4a1.78,1.78,0,0,1,1-.3,1.57,1.57,0,0,1,1.06.35,1.59,1.59,0,0,1,.51.79h1a2.22,2.22,0,0,0-.44-1.07,2.32,2.32,0,0,0-.91-.72,2.89,2.89,0,0,0-1.24-.25,2.76,2.76,0,0,0-1.55.43,3,3,0,0,0-1,1.2,3.93,3.93,0,0,0-.37,1.76,4,4,0,0,0,.36,1.74,3,3,0,0,0,3.88,1.36,2.34,2.34,0,0,0,.88-.73,2.43,2.43,0,0,0,.42-1h-1a1.55,1.55,0,0,1-.32.61,1.5,1.5,0,0,1-.54.39,1.8,1.8,0,0,1-.71.14,1.73,1.73,0,0,1-1-.31,2.06,2.06,0,0,1-.68-.87,3.4,3.4,0,0,1-.24-1.33,3.23,3.23,0,0,1,.24-1.29A2,2,0,0,1,24.23,12.4Z"/><path class="cls-1" d="M34.46,11.28H33.21L30.35,14.2h-.12V9.1h0V7.67h0V0h-1V3.22h-.09c-.07-.11-.18-.26-.31-.44a1.84,1.84,0,0,0-.57-.47,2.05,2.05,0,0,0-1-.21,2.57,2.57,0,0,0-1.46.41,2.76,2.76,0,0,0-1,1.17,4.14,4.14,0,0,0-.36,1.79,4.19,4.19,0,0,0,.36,1.8,2.73,2.73,0,0,0,1,1.18,2.51,2.51,0,0,0,1.44.41,2.08,2.08,0,0,0,1-.21,1.93,1.93,0,0,0,.59-.48c.13-.18.24-.33.31-.45h.09v2.72h0v7.39h1V15.38l.71-.66,2.44,3.11h1.28l-3-3.75ZM29,6.76a2,2,0,0,1-.64.88,1.65,1.65,0,0,1-1,.32,1.7,1.7,0,0,1-1.06-.33,2.18,2.18,0,0,1-.64-.91,3.64,3.64,0,0,1-.21-1.27,3.47,3.47,0,0,1,.21-1.24,1.92,1.92,0,0,1,.63-.88A1.71,1.71,0,0,1,27.36,3a1.66,1.66,0,0,1,1,.31,1.81,1.81,0,0,1,.63.86,3.62,3.62,0,0,1,.21,1.28A3.75,3.75,0,0,1,29,6.76Z"/><path class="cls-1" d="M40,11.92a2.36,2.36,0,0,0-.9-.55,3,3,0,0,0-1-.17,2.76,2.76,0,0,0-1.55.43,2.81,2.81,0,0,0-1,1.2,4,4,0,0,0-.37,1.78,3.93,3.93,0,0,0,.37,1.76,2.71,2.71,0,0,0,1,1.17,3,3,0,0,0,1.63.42,3.51,3.51,0,0,0,1.2-.2,2.5,2.5,0,0,0,.89-.58,2.27,2.27,0,0,0,.52-.87l-1-.27a1.47,1.47,0,0,1-.91.91,2.36,2.36,0,0,1-.72.11,2.07,2.07,0,0,1-1.07-.27,1.71,1.71,0,0,1-.72-.78,2.64,2.64,0,0,1-.24-1.11h4.74v-.43a4.29,4.29,0,0,0-.24-1.54A2.65,2.65,0,0,0,40,11.92ZM36.15,14a2.07,2.07,0,0,1,.22-.86A1.85,1.85,0,0,1,37,12.4a1.79,1.79,0,0,1,1-.3,1.69,1.69,0,0,1,.94.25,1.75,1.75,0,0,1,.63.69,2.25,2.25,0,0,1,.22,1Z"/><path class="cls-1" d="M45.4,11.18h-.28a2,2,0,0,0-1.06.3,1.61,1.61,0,0,0-.65.79h-.06v-1h-1v6.55h1V13.69a1.46,1.46,0,0,1,.22-.8,1.44,1.44,0,0,1,.58-.54,1.84,1.84,0,0,1,.85-.2,2.47,2.47,0,0,1,.39,0l.23,0v-1Z"/><circle class="cls-1" cx="19.11" cy="4.25" r="0.92"/><path class="cls-1" d="M16.75,10.83a12.26,12.26,0,0,1-5.06-1.15L12,9a10.58,10.58,0,0,0,9.36,0l.33.67A11.1,11.1,0,0,1,16.75,10.83Z"/></svg>
